<svg width="227" height="221" viewBox="0 0 227 221" fill="none" xmlns="http://www.w3.org/2000/svg">
<path d="M27.3657 1.96567C18.7792 -1.36724 9.02835 2.87789 6.57883 11.7568C-0.571841 37.6763 -1.30182 65.0393 4.57065 91.4502C11.6538 123.306 28.0243 152.346 51.6119 174.898C75.1995 197.45 104.945 212.502 137.087 218.148C163.734 222.83 191.037 220.873 216.61 212.567C225.37 209.721 229.173 199.79 225.458 191.361C221.744 182.933 211.916 179.224 203.086 181.844C183.621 187.62 163.005 188.836 142.858 185.297C117.214 180.792 93.4814 168.783 74.662 150.79C55.8425 132.797 42.7813 109.627 37.13 84.2107C32.6903 64.2431 32.9805 43.5935 37.8774 23.8881C40.0988 14.9493 35.9521 5.29859 27.3657 1.96567Z" fill="url(#paint0_linear_7609_19)"/>
<defs>
<linearGradient id="paint0_linear_7609_19" x1="8.58199" y1="0.867993" x2="237.327" y2="216.507" gradientUnits="userSpaceOnUse">
<stop stop-color="#54AFF0"/>
<stop offset="1" stop-color="#54AFF0" stop-opacity="0"/>
</linearGradient>
</defs>
</svg>
