<svg width="190" height="255" viewBox="0 0 190 255" fill="none" xmlns="http://www.w3.org/2000/svg">
<path d="M1.17754 18.6028C-0.301801 9.51182 5.87363 0.85358 15.0675 0.299094C41.9065 -1.31957 68.8258 3.64222 93.4442 14.8654C123.138 28.4024 148.151 50.4406 165.32 78.1932C182.488 105.946 191.042 138.166 189.899 170.78C188.951 197.819 181.373 224.122 167.943 247.416C163.342 255.395 152.838 257.056 145.364 251.673C137.889 246.291 136.299 235.908 140.694 227.814C150.382 209.969 155.848 190.054 156.565 169.612C157.477 143.591 150.652 117.883 136.954 95.741C123.256 73.5986 103.3 56.0154 79.6083 45.2149C60.9959 36.7298 40.7353 32.7304 20.4427 33.4333C11.2376 33.7522 2.65688 27.6939 1.17754 18.6028Z" fill="url(#paint0_linear_7609_18)"/>
<defs>
<linearGradient id="paint0_linear_7609_18" x1="4.00001" y1="-1.17256e-05" x2="167.5" y2="268.5" gradientUnits="userSpaceOnUse">
<stop stop-color="#54AFF0"/>
<stop offset="1" stop-color="#54AFF0" stop-opacity="0"/>
</linearGradient>
</defs>
</svg>
