<svg width="135" height="137" viewBox="0 0 135 137" fill="none" xmlns="http://www.w3.org/2000/svg">
<g clip-path="url(#clip0_7618_154)">
<g opacity="0.3">
<mask id="mask0_7618_154" style="mask-type:alpha" maskUnits="userSpaceOnUse" x="-98" y="-105" width="331" height="348">
<line x1="27.3901" y1="-104.772" x2="-96.555" y2="137.347" stroke="black"/>
<line x1="36.2916" y1="-100.215" x2="-87.6535" y2="141.904" stroke="black"/>
<line x1="45.193" y1="-95.6585" x2="-78.7521" y2="146.46" stroke="black"/>
<line x1="54.0945" y1="-91.1017" x2="-69.8506" y2="151.017" stroke="black"/>
<line x1="62.9959" y1="-86.5449" x2="-60.9493" y2="155.574" stroke="black"/>
<line x1="71.8973" y1="-81.9881" x2="-52.0478" y2="160.131" stroke="black"/>
<line x1="80.7987" y1="-77.4313" x2="-43.1464" y2="164.688" stroke="black"/>
<line x1="89.7002" y1="-72.8745" x2="-34.2449" y2="169.244" stroke="black"/>
<line x1="98.6016" y1="-68.3177" x2="-25.3436" y2="173.801" stroke="black"/>
<line x1="107.503" y1="-63.7609" x2="-16.4421" y2="178.358" stroke="black"/>
<line x1="116.405" y1="-59.2041" x2="-7.54059" y2="182.915" stroke="black"/>
<line x1="125.306" y1="-54.6473" x2="1.36078" y2="187.472" stroke="black"/>
<line x1="134.207" y1="-50.0905" x2="10.2623" y2="192.029" stroke="black"/>
<line x1="143.109" y1="-45.5337" x2="19.1636" y2="196.585" stroke="black"/>
<line x1="152.01" y1="-40.9769" x2="28.0651" y2="201.142" stroke="black"/>
<line x1="160.912" y1="-36.42" x2="36.9665" y2="205.699" stroke="black"/>
<line x1="169.813" y1="-31.8633" x2="45.868" y2="210.256" stroke="black"/>
<line x1="178.714" y1="-27.3065" x2="54.7693" y2="214.813" stroke="black"/>
<line x1="187.616" y1="-22.7496" x2="63.6708" y2="219.369" stroke="black"/>
<line x1="196.517" y1="-18.1928" x2="72.5722" y2="223.926" stroke="black"/>
<line x1="205.419" y1="-13.6361" x2="81.4737" y2="228.483" stroke="black"/>
<line x1="214.32" y1="-9.07923" x2="90.3751" y2="233.04" stroke="black"/>
<line x1="223.222" y1="-4.5224" x2="99.2766" y2="237.597" stroke="black"/>
<line x1="232.123" y1="0.0343589" x2="108.178" y2="242.153" stroke="black"/>
</mask>
<g mask="url(#mask0_7618_154)">
<circle cx="67.339" cy="68.4627" r="68" transform="rotate(27.1087 67.339 68.4627)" fill="#1F98F0"/>
</g>
</g>
</g>
<defs>
<clipPath id="clip0_7618_154">
<rect width="135" height="137" fill="white"/>
</clipPath>
</defs>
</svg>
