<svg width="218" height="219" viewBox="0 0 218 219" fill="none" xmlns="http://www.w3.org/2000/svg">
<g clip-path="url(#clip0_7610_90)">
<g opacity="0.3">
<mask id="mask0_7610_90" style="mask-type:alpha" maskUnits="userSpaceOnUse" x="-156" y="-170" width="531" height="560">
<path fill-rule="evenodd" clip-rule="evenodd" d="M-156 220.128L43.7134 -169.999L44.6035 -169.544L-155.11 220.584L-156 220.128Z" fill="#1F98F0"/>
<path fill-rule="evenodd" clip-rule="evenodd" d="M-141.657 227.47L58.0565 -162.658L58.9467 -162.202L-140.767 227.925L-141.657 227.47Z" fill="#1F98F0"/>
<path fill-rule="evenodd" clip-rule="evenodd" d="M-127.314 234.812L72.3994 -155.315L73.2896 -154.859L-126.424 235.268L-127.314 234.812Z" fill="#1F98F0"/>
<path fill-rule="evenodd" clip-rule="evenodd" d="M-112.971 242.155L86.7424 -147.973L87.6326 -147.517L-112.081 242.61L-112.971 242.155Z" fill="#1F98F0"/>
<path fill-rule="evenodd" clip-rule="evenodd" d="M-98.6281 249.497L101.085 -140.63L101.975 -140.175L-97.738 249.953L-98.6281 249.497Z" fill="#1F98F0"/>
<path fill-rule="evenodd" clip-rule="evenodd" d="M-84.2851 256.839L115.428 -133.288L116.318 -132.832L-83.3949 257.295L-84.2851 256.839Z" fill="#1F98F0"/>
<path fill-rule="evenodd" clip-rule="evenodd" d="M-69.9423 264.182L129.771 -125.946L130.661 -125.49L-69.0522 264.637L-69.9423 264.182Z" fill="#1F98F0"/>
<path fill-rule="evenodd" clip-rule="evenodd" d="M-55.5993 271.524L144.114 -118.603L145.004 -118.147L-54.7092 271.98L-55.5993 271.524Z" fill="#1F98F0"/>
<path fill-rule="evenodd" clip-rule="evenodd" d="M-41.2565 278.867L158.457 -111.261L159.347 -110.805L-40.3664 279.322L-41.2565 278.867Z" fill="#1F98F0"/>
<path fill-rule="evenodd" clip-rule="evenodd" d="M-26.9135 286.209L172.8 -103.918L173.69 -103.463L-26.0234 286.665L-26.9135 286.209Z" fill="#1F98F0"/>
<path fill-rule="evenodd" clip-rule="evenodd" d="M-12.5705 293.551L187.143 -96.5758L188.033 -96.1201L-11.6803 294.007L-12.5705 293.551Z" fill="#1F98F0"/>
<path fill-rule="evenodd" clip-rule="evenodd" d="M1.77229 300.894L201.486 -89.2335L202.376 -88.7778L2.66243 301.349L1.77229 300.894Z" fill="#1F98F0"/>
<path fill-rule="evenodd" clip-rule="evenodd" d="M16.1153 308.236L215.829 -81.8912L216.719 -81.4355L17.0054 308.692L16.1153 308.236Z" fill="#1F98F0"/>
<path fill-rule="evenodd" clip-rule="evenodd" d="M30.4581 315.579L230.171 -74.5486L231.062 -74.093L31.3482 316.034L30.4581 315.579Z" fill="#1F98F0"/>
<path fill-rule="evenodd" clip-rule="evenodd" d="M44.8011 322.921L244.514 -67.2063L245.405 -66.7506L45.6912 323.377L44.8011 322.921Z" fill="#1F98F0"/>
<path fill-rule="evenodd" clip-rule="evenodd" d="M59.144 330.263L258.857 -59.864L259.747 -59.4083L60.0341 330.719L59.144 330.263Z" fill="#1F98F0"/>
<path fill-rule="evenodd" clip-rule="evenodd" d="M73.4869 337.606L273.2 -52.5215L274.09 -52.0658L74.377 338.062L73.4869 337.606Z" fill="#1F98F0"/>
<path fill-rule="evenodd" clip-rule="evenodd" d="M87.8298 344.948L287.543 -45.1791L288.433 -44.7234L88.7199 345.404L87.8298 344.948Z" fill="#1F98F0"/>
<path fill-rule="evenodd" clip-rule="evenodd" d="M102.173 352.291L301.886 -37.8368L302.776 -37.3811L103.063 352.746L102.173 352.291Z" fill="#1F98F0"/>
<path fill-rule="evenodd" clip-rule="evenodd" d="M116.516 359.633L316.229 -30.4943L317.119 -30.0386L117.406 360.089L116.516 359.633Z" fill="#1F98F0"/>
<path fill-rule="evenodd" clip-rule="evenodd" d="M130.859 366.975L330.572 -23.1519L331.462 -22.6963L131.749 367.431L130.859 366.975Z" fill="#1F98F0"/>
<path fill-rule="evenodd" clip-rule="evenodd" d="M145.201 374.318L344.915 -15.8094L345.805 -15.3537L146.092 374.774L145.201 374.318Z" fill="#1F98F0"/>
<path fill-rule="evenodd" clip-rule="evenodd" d="M159.544 381.66L359.258 -8.46709L360.148 -8.01141L160.435 382.116L159.544 381.66Z" fill="#1F98F0"/>
<path fill-rule="evenodd" clip-rule="evenodd" d="M173.887 389.003L373.601 -1.12475L374.491 -0.669067L174.778 389.458L173.887 389.003Z" fill="#1F98F0"/>
</mask>
<g mask="url(#mask0_7610_90)">
<path d="M206.332 159.43C178.758 213.295 112.738 234.608 58.8722 207.033C5.00687 179.458 -16.3059 113.438 11.2687 59.573C38.8434 5.70765 104.864 -15.6052 158.729 11.9695C212.594 39.5441 233.907 105.564 206.332 159.43Z" fill="#1F98F0"/>
</g>
</g>
</g>
<defs>
<clipPath id="clip0_7610_90">
<rect width="218" height="219" fill="white"/>
</clipPath>
</defs>
</svg>
