<svg width="80" height="80" viewBox="0 0 80 80" fill="none" xmlns="http://www.w3.org/2000/svg">
<circle cx="40" cy="40" r="40" fill="white"/>
<path d="M32 45.2001C32 50.0376 35.9125 53.9501 40.75 53.9501C45.5875 53.9501 49.5 50.0376 49.5 45.2001V40.2001H32V45.2001ZM45.9 30.6626L48.525 28.0376L47.5 27.0001L44.625 29.8876C43.45 29.3001 42.15 28.9501 40.75 28.9501C39.35 28.9501 38.05 29.3001 36.8875 29.8876L34 27.0001L32.975 28.0376L35.6 30.6626C33.425 32.2501 32 34.8001 32 37.7001V38.9501H49.5V37.7001C49.5 34.8001 48.075 32.2501 45.9 30.6626ZM37 36.4501C36.3125 36.4501 35.75 35.8876 35.75 35.2001C35.75 34.5126 36.3125 33.9501 37 33.9501C37.6875 33.9501 38.25 34.5126 38.25 35.2001C38.25 35.8876 37.6875 36.4501 37 36.4501ZM44.5 36.4501C43.8125 36.4501 43.25 35.8876 43.25 35.2001C43.25 34.5126 43.8125 33.9501 44.5 33.9501C45.1875 33.9501 45.75 34.5126 45.75 35.2001C45.75 35.8876 45.1875 36.4501 44.5 36.4501Z" fill="#5AB2F1"/>
</svg>
